<?xml version="1.0" standalone="no"?>
<!DOCTYPE svg PUBLIC "-//W3C//DTD SVG 20010904//EN"
 "http://www.w3.org/TR/2001/REC-SVG-20010904/DTD/svg10.dtd">
<svg version="1.0" xmlns="http://www.w3.org/2000/svg"
 width="512.000000pt" height="512.000000pt" viewBox="0 0 512.000000 512.000000"
 preserveAspectRatio="xMidYMid meet">

<g transform="translate(0.000000,512.000000) scale(0.100000,-0.100000)"
fill="#000000" stroke="none">
<path d="M2525 5113 c-232 -30 -451 -121 -625 -261 -89 -71 -107 -100 -90
-143 11 -25 46 -49 74 -49 8 0 54 32 102 70 111 88 275 171 409 207 89 23 119
26 265 26 147 1 176 -2 263 -26 385 -103 678 -397 778 -780 15 -58 23 -124 27
-222 6 -196 -9 -272 -104 -517 -18 -46 -18 -48 2 -75 37 -49 100 -44 130 12
l19 35 211 0 c230 0 278 -8 339 -54 19 -15 47 -48 62 -74 39 -65 40 -166 3
-232 -29 -52 -95 -105 -148 -120 -21 -6 -157 -10 -323 -10 l-286 0 -12 40
c-38 127 -139 295 -247 410 -170 181 -406 305 -645 340 -131 19 -339 8 -459
-25 -193 -52 -387 -169 -524 -315 -108 -115 -209 -283 -247 -410 l-12 -40
-183 0 c-101 0 -207 5 -236 11 -251 54 -417 318 -353 564 45 171 170 295 342
340 41 11 111 15 245 15 263 0 279 9 292 163 10 111 48 252 95 353 23 48 41
100 41 115 0 61 -77 92 -121 48 -27 -27 -80 -143 -113 -247 -22 -71 -30 -109
-52 -249 l-5 -33 -173 0 c-274 0 -385 -38 -532 -185 -122 -121 -184 -266 -184
-430 0 -164 62 -309 184 -430 148 -148 257 -185 538 -185 l178 0 -6 -99 c-30
-446 221 -872 630 -1071 151 -74 260 -100 436 -107 88 -3 174 -1 220 6 158 24
329 92 465 184 147 100 334 319 320 376 -8 35 -41 61 -76 61 -20 0 -36 -10
-58 -38 -107 -132 -133 -162 -141 -162 -4 0 -33 30 -64 67 l-55 66 45 51 c66
75 141 232 162 338 l17 88 91 0 91 0 -10 -62 c-14 -96 -13 -125 8 -148 19 -22
64 -26 95 -10 10 5 23 25 29 42 21 66 34 214 27 316 l-6 102 280 0 c257 0 285
2 343 21 120 39 220 140 257 258 69 221 -67 451 -298 500 -29 6 -136 11 -238
11 l-185 0 7 23 c39 123 56 364 35 507 -7 45 -15 88 -18 96 -4 12 34 14 239
14 291 0 314 5 395 85 54 55 83 122 83 194 0 128 -96 243 -225 272 -53 12 -53
12 -90 87 -88 178 -289 302 -490 302 -131 0 -272 -57 -378 -151 l-56 -50 -49
31 c-118 72 -289 132 -442 156 -87 13 -243 16 -315 7z m1357 -163 c125 -38
236 -149 268 -266 19 -73 43 -94 104 -94 28 0 69 -9 92 -19 92 -42 98 -168 11
-221 -30 -18 -52 -20 -292 -20 l-260 0 -35 78 c-48 108 -137 237 -233 338
l-82 87 35 29 c117 99 256 130 392 88z m-1140 -1414 c295 -57 548 -249 686
-521 38 -76 80 -211 90 -292 l9 -63 -92 0 -91 0 -12 71 c-24 139 -94 278 -195
386 -317 339 -837 339 -1154 0 -109 -117 -172 -249 -200 -418 -14 -87 -15
-115 -5 -196 21 -166 84 -315 180 -424 l41 -46 -55 -66 c-31 -37 -59 -67 -64
-67 -11 0 -86 90 -127 150 -121 180 -180 419 -155 634 47 426 356 767 772 851
88 18 282 18 372 1z m-37 -331 c183 -46 344 -175 422 -335 52 -108 67 -172 67
-285 0 -172 -55 -309 -178 -443 -42 -45 -76 -90 -76 -100 0 -23 17 -47 109
-156 l74 -88 -24 -19 c-33 -26 -173 -94 -234 -114 -181 -60 -431 -60 -610 0
-60 21 -201 89 -234 114 l-24 19 75 88 c99 118 111 138 102 166 -4 13 -38 56
-76 97 -74 80 -135 191 -159 291 -17 71 -17 219 0 290 53 221 239 411 461 471
82 22 226 24 305 4z"/>
<path d="M2221 2914 c-36 -46 -27 -70 61 -160 55 -56 58 -62 48 -88 -15 -40
-12 -131 6 -174 37 -89 124 -146 224 -146 138 0 240 102 240 239 0 67 -20 118
-63 163 -65 68 -165 97 -242 70 l-40 -14 -73 68 c-60 57 -78 68 -106 68 -25 0
-40 -7 -55 -26z m407 -270 c30 -34 29 -85 -2 -121 -52 -61 -156 -21 -156 60 0
87 101 126 158 61z"/>
<path d="M1110 1687 c-50 -25 -50 -14 -50 -759 0 -384 -3 -698 -6 -698 -3 0
-44 27 -91 60 -94 65 -129 74 -163 40 -26 -26 -26 -81 -1 -104 58 -52 319
-226 340 -226 22 0 282 171 339 223 28 26 30 79 2 107 -34 34 -69 25 -171 -45
l-94 -65 -3 719 c-2 668 -3 719 -20 733 -26 24 -54 29 -82 15z"/>
<path d="M3955 1690 c-46 -18 -45 -1 -47 -753 l-3 -717 -94 65 c-102 70 -137
79 -171 45 -28 -28 -26 -81 3 -107 59 -53 317 -223 339 -223 22 0 278 170 336
223 28 26 30 79 2 107 -34 34 -69 25 -163 -40 -47 -33 -88 -60 -91 -60 -3 0
-7 319 -8 710 -3 695 -3 710 -23 729 -25 24 -54 32 -80 21z"/>
<path d="M2513 1066 l-28 -24 -3 -406 c-2 -223 -5 -406 -8 -406 -3 0 -44 27
-91 60 -94 65 -129 74 -163 40 -26 -26 -26 -81 -1 -104 60 -55 319 -226 341
-226 22 0 281 171 341 226 25 23 25 78 -1 104 -34 34 -69 25 -163 -40 -47 -33
-88 -60 -91 -60 -3 0 -6 183 -8 406 l-3 406 -28 24 c-15 13 -37 24 -47 24 -10
0 -32 -11 -47 -24z"/>
</g>
</svg>
