<?xml version="1.0" standalone="no"?>
<!DOCTYPE svg PUBLIC "-//W3C//DTD SVG 20010904//EN"
 "http://www.w3.org/TR/2001/REC-SVG-20010904/DTD/svg10.dtd">
<svg version="1.0" xmlns="http://www.w3.org/2000/svg"
 width="512.000000pt" height="512.000000pt" viewBox="0 0 512.000000 512.000000"
 preserveAspectRatio="xMidYMid meet">

<g transform="translate(0.000000,512.000000) scale(0.100000,-0.100000)"
fill="#000000" stroke="none">
<path d="M2487 5099 c-27 -14 -54 -44 -94 -107 -222 -345 -380 -563 -719 -998
-522 -667 -735 -991 -877 -1334 -198 -482 -206 -965 -23 -1439 192 -496 609
-909 1109 -1095 233 -87 420 -120 677 -120 257 0 444 33 677 120 500 186 917
599 1109 1095 183 474 175 957 -23 1439 -141 342 -355 668 -873 1330 -336 430
-474 619 -655 899 -97 150 -128 190 -160 208 -49 28 -98 28 -148 2z m147 -551
c109 -161 240 -336 516 -693 141 -181 290 -375 331 -430 523 -696 712 -1153
671 -1623 -14 -166 -32 -254 -79 -392 -160 -474 -529 -843 -1003 -1003 -210
-71 -427 -98 -638 -79 -158 15 -247 33 -382 79 -474 160 -843 529 -1003 1003
-47 138 -65 226 -79 392 -32 374 84 743 380 1205 131 205 259 380 595 814 304
391 432 564 543 727 38 56 71 102 74 102 3 0 36 -46 74 -102z"/>
<path d="M1973 3185 c-238 -52 -403 -296 -364 -538 42 -259 288 -439 544 -398
259 42 439 288 398 544 -16 101 -62 189 -135 262 -73 73 -142 111 -233 130
-82 18 -129 18 -210 0z m170 -319 c103 -43 128 -177 48 -257 -112 -113 -296
-12 -267 146 18 94 128 150 219 111z"/>
<path d="M3295 2866 c-16 -8 -402 -387 -857 -843 -898 -899 -851 -846 -833
-940 9 -49 69 -109 118 -118 94 -18 40 -66 945 838 605 605 835 841 843 866
43 128 -93 252 -216 197z"/>
<path d="M2933 1585 c-238 -52 -403 -296 -364 -538 33 -204 194 -365 399 -398
313 -51 594 230 543 543 -16 102 -62 190 -135 263 -73 73 -142 111 -233 130
-82 18 -129 18 -210 0z m200 -338 c98 -74 82 -219 -29 -272 -107 -50 -235 43
-221 161 13 121 155 184 250 111z"/>
</g>
</svg>
