<?xml version="1.0" standalone="no"?>
<!DOCTYPE svg PUBLIC "-//W3C//DTD SVG 20010904//EN"
 "http://www.w3.org/TR/2001/REC-SVG-20010904/DTD/svg10.dtd">
<svg version="1.0" xmlns="http://www.w3.org/2000/svg"
 width="512.000000pt" height="512.000000pt" viewBox="0 0 512.000000 512.000000"
 preserveAspectRatio="xMidYMid meet">

<g transform="translate(0.000000,512.000000) scale(0.100000,-0.100000)"
fill="#000000" stroke="none">
<path d="M1512 4820 c-68 -42 -91 -129 -53 -200 25 -48 68 -70 152 -81 89 -11
160 -49 210 -111 49 -62 64 -107 63 -193 0 -117 -67 -220 -179 -275 l-50 -25
-782 -5 c-766 -5 -782 -5 -809 -25 -86 -65 -82 -181 10 -249 27 -21 38 -21
784 -24 661 -2 767 -1 837 13 326 65 545 386 481 706 -38 188 -160 348 -326
427 -136 65 -273 82 -338 42z"/>
<path d="M2966 4230 c-88 -27 -133 -140 -86 -218 28 -45 71 -68 143 -76 117
-14 203 -71 255 -171 36 -70 37 -187 2 -260 -29 -59 -84 -116 -142 -147 l-43
-23 -1497 -5 c-1492 -5 -1497 -5 -1524 -26 -94 -70 -96 -190 -5 -251 l34 -23
1488 0 c1035 0 1504 3 1541 11 83 17 206 81 274 143 157 142 232 367 190 566
-56 269 -269 456 -546 483 -30 3 -68 2 -84 -3z"/>
<path d="M69 2667 c-91 -61 -89 -181 5 -251 l27 -21 2067 -5 2067 -5 65 -23
c253 -91 430 -277 497 -522 24 -89 24 -281 0 -370 -55 -202 -193 -374 -377
-469 -99 -51 -164 -70 -283 -81 -63 -5 -108 -15 -129 -27 -98 -57 -102 -188
-8 -251 33 -23 41 -24 150 -19 297 13 575 163 760 409 77 102 143 238 177 364
23 88 26 117 26 259 0 142 -3 171 -26 259 -64 239 -208 447 -408 589 -84 59
-230 129 -334 159 l-80 23 -2081 2 -2081 3 -34 -23z"/>
<path d="M95 2086 c-64 -28 -106 -109 -90 -173 8 -35 41 -80 68 -96 17 -9 451
-13 2029 -17 l2007 -5 28 -21 c41 -30 73 -82 73 -118 1 -44 33 -110 67 -134
45 -32 94 -37 145 -14 62 27 88 72 88 151 0 153 -101 315 -242 387 -111 56 -3
54 -2158 53 -1628 0 -1990 -2 -2015 -13z"/>
<path d="M95 1476 c-64 -28 -106 -109 -90 -173 8 -35 41 -80 68 -96 17 -9 302
-13 1287 -17 l1265 -5 57 -28 c109 -54 171 -152 172 -272 1 -86 -14 -131 -63
-193 -50 -62 -121 -100 -210 -111 -84 -11 -127 -33 -152 -81 -38 -71 -15 -158
53 -200 66 -40 209 -21 348 47 88 43 199 147 247 233 100 178 106 384 15 570
-51 105 -169 224 -272 273 -146 70 -91 67 -1462 67 -1003 -1 -1239 -3 -1263
-14z"/>
<path d="M84 896 c-49 -22 -79 -72 -79 -133 0 -56 18 -90 69 -127 27 -21 35
-21 791 -21 756 0 764 0 791 21 71 53 92 130 52 198 -47 80 2 76 -843 76 -607
-1 -756 -3 -781 -14z"/>
</g>
</svg>
